<svg width="24" height="24" viewBox="0 0 24 24" fill="none" xmlns="http://www.w3.org/2000/svg">
<path d="M23.6831 15.0506L21.8298 13.5505C21.9175 13.0415 21.9627 12.5219 21.9627 12.0022C21.9627 11.4825 21.9175 10.9628 21.8298 10.4538L23.6831 8.95375C23.8229 8.84045 23.9229 8.68956 23.9699 8.52112C24.0169 8.35269 24.0087 8.1747 23.9462 8.01082L23.9208 7.94118C23.4105 6.59115 22.6465 5.33966 21.6656 4.24717L21.6147 4.19092C21.4957 4.05846 21.3371 3.96324 21.1598 3.91781C20.9825 3.87238 20.7949 3.87887 20.6215 3.93643L18.3211 4.71059C17.4723 4.05162 16.5244 3.53194 15.5001 3.16763L15.0559 0.890687C15.0224 0.719359 14.9346 0.561742 14.8042 0.438775C14.6738 0.315807 14.507 0.233311 14.3259 0.202246L14.2495 0.188852C12.7753 -0.0629508 11.2247 -0.0629508 9.75053 0.188852L9.67414 0.202246C9.49304 0.233311 9.32621 0.315807 9.19581 0.438775C9.06542 0.561742 8.97763 0.719359 8.94412 0.890687L8.49705 3.17835C7.48094 3.54273 6.53469 4.06214 5.69583 4.71595L3.37845 3.93643C3.20519 3.87842 3.01738 3.87169 2.83998 3.91715C2.66258 3.9626 2.50399 4.05809 2.38529 4.19092L2.33436 4.24717C1.35463 5.34044 0.590741 6.59172 0.0792323 7.94118L0.0537666 8.01082C-0.0735618 8.34567 0.0311305 8.72069 0.316912 8.95375L2.19288 10.4699C2.10517 10.9735 2.06273 11.4879 2.06273 11.9995C2.06273 12.5138 2.10517 13.0281 2.19288 13.5291L0.316912 15.0452C0.177122 15.1585 0.0770718 15.3094 0.0300665 15.4779C-0.0169388 15.6463 -0.00867248 15.8243 0.0537666 15.9882L0.0792323 16.0578C0.591375 17.4079 1.34969 18.6535 2.33436 19.7518L2.38529 19.8081C2.50429 19.9405 2.66288 20.0357 2.84017 20.0812C3.01746 20.1266 3.20514 20.1201 3.37845 20.0626L5.69583 19.283C6.53903 19.9393 7.48126 20.459 8.49705 20.8206L8.94412 23.1083C8.97763 23.2796 9.06542 23.4372 9.19581 23.5602C9.32621 23.6832 9.49304 23.7657 9.67414 23.7967L9.75053 23.8101C11.2383 24.0633 12.7617 24.0633 14.2495 23.8101L14.3259 23.7967C14.507 23.7657 14.6738 23.6832 14.8042 23.5602C14.9346 23.4372 15.0224 23.2796 15.0559 23.1083L15.5001 20.8314C16.524 20.468 17.4772 19.9466 18.3211 19.2884L20.6215 20.0626C20.7948 20.1206 20.9826 20.1273 21.16 20.0818C21.3374 20.0364 21.496 19.9409 21.6147 19.8081L21.6656 19.7518C22.6503 18.6508 23.4086 17.4079 23.9208 16.0578L23.9462 15.9882C24.0736 15.6587 23.9689 15.2837 23.6831 15.0506ZM19.8208 10.7699C19.8915 11.1744 19.9283 11.5896 19.9283 12.0049C19.9283 12.4201 19.8915 12.8353 19.8208 13.2398L19.634 14.3139L21.7477 16.0257C21.4273 16.7245 21.0228 17.3861 20.5423 17.9972L17.9165 17.1159L17.0281 17.807C16.3518 18.3321 15.5991 18.7446 14.7842 19.0339L13.7062 19.417L13.1997 22.0154C12.4006 22.1011 11.5938 22.1011 10.7946 22.0154L10.2881 19.4116L9.21858 19.0232C8.41217 18.7339 7.66235 18.3214 6.99175 17.799L6.10328 17.1052L3.46051 17.9946C2.97949 17.3811 2.5777 16.7195 2.25513 16.023L4.39142 14.2952L4.2075 13.2237C4.13959 12.8246 4.10281 12.412 4.10281 12.0049C4.10281 11.595 4.13676 11.1852 4.2075 10.786L4.39142 9.71451L2.25513 7.98671C2.57487 7.28756 2.97949 6.62858 3.46051 6.01515L6.10328 6.9045L6.99175 6.2107C7.66235 5.68834 8.41217 5.27581 9.21858 4.98651L10.291 4.60344L10.7975 1.99969C11.5925 1.91397 12.4046 1.91397 13.2025 1.99969L13.709 4.59809L14.7871 4.98115C15.5991 5.27045 16.3546 5.68298 17.0309 6.20802L17.9194 6.89914L20.5452 6.01783C21.0262 6.63126 21.428 7.29292 21.7505 7.98939L19.6369 9.70112L19.8208 10.7699ZM12.0028 7.02236C9.25254 7.02236 7.02287 9.13322 7.02287 11.737C7.02287 14.3407 9.25254 16.4516 12.0028 16.4516C14.7531 16.4516 16.9828 14.3407 16.9828 11.737C16.9828 9.13322 14.7531 7.02236 12.0028 7.02236ZM14.2438 13.8586C13.9499 14.1376 13.6006 14.3589 13.216 14.5097C12.8314 14.6605 12.4191 14.7378 12.0028 14.7372C11.1568 14.7372 10.3617 14.4238 9.76185 13.8586C9.46708 13.5803 9.23333 13.2496 9.07406 12.8855C8.91478 12.5214 8.83312 12.1311 8.83377 11.737C8.83377 10.936 9.16482 10.1833 9.76185 9.6154C10.3617 9.0475 11.1568 8.73677 12.0028 8.73677C12.8489 8.73677 13.644 9.0475 14.2438 9.6154C14.5386 9.89366 14.7723 10.2244 14.9316 10.5885C15.0909 10.9526 15.1725 11.3429 15.1719 11.737C15.1719 12.5379 14.8408 13.2907 14.2438 13.8586Z" fill="#F5F5F5"/>
</svg>
