<svg width="28" height="25" viewBox="0 0 28 25" fill="none" xmlns="http://www.w3.org/2000/svg">
<path d="M27.72 0H0.28C0.126 0 0 0.126 0 0.28V2.52C0 2.674 0.126 2.8 0.28 2.8H27.72C27.874 2.8 28 2.674 28 2.52V0.28C28 0.126 27.874 0 27.72 0ZM27.72 21.84H0.28C0.126 21.84 0 21.966 0 22.12V24.36C0 24.514 0.126 24.64 0.28 24.64H27.72C27.874 24.64 28 24.514 28 24.36V22.12C28 21.966 27.874 21.84 27.72 21.84ZM27.72 10.92H0.28C0.126 10.92 0 11.046 0 11.2V13.44C0 13.594 0.126 13.72 0.28 13.72H27.72C27.874 13.72 28 13.594 28 13.44V11.2C28 11.046 27.874 10.92 27.72 10.92Z" fill="#F5F5F5"/>
</svg>
