<svg width="26" height="24" viewBox="0 0 26 24" fill="none" xmlns="http://www.w3.org/2000/svg">
<path d="M24.8844 11.8073L14.0539 0.982491L13.328 0.256537C13.1626 0.0922208 12.9389 0 12.7057 0C12.4726 0 12.2489 0.0922208 12.0835 0.256537L0.527064 11.8073C0.357575 11.9762 0.223625 12.1772 0.13312 12.3987C0.042616 12.6201 -0.00260847 12.8575 0.00011618 13.0967C0.0113278 14.0833 0.832581 14.8709 1.81921 14.8709H3.01044V24H22.401V14.8709H23.6174C24.0967 14.8709 24.548 14.6831 24.8872 14.344C25.0542 14.1775 25.1865 13.9796 25.2765 13.7616C25.3664 13.5437 25.4123 13.31 25.4113 13.0743C25.4113 12.5978 25.2235 12.1465 24.8844 11.8073ZM14.2753 21.9819H11.1361V16.264H14.2753V21.9819ZM20.3829 12.8528V21.9819H16.0692V15.5913C16.0692 14.9718 15.5675 14.4701 14.948 14.4701H10.4634C9.84394 14.4701 9.34222 14.9718 9.34222 15.5913V21.9819H5.02854V12.8528H2.33774L12.7085 2.49046L13.356 3.13793L23.0765 12.8528H20.3829Z" fill="#ACACAC"/>
</svg>
