<svg width="24" height="24" viewBox="0 0 24 24" fill="none" xmlns="http://www.w3.org/2000/svg">
<path d="M23.5033 11.8034L12.5988 0.262836C12.5203 0.179517 12.427 0.113416 12.3244 0.0683154C12.2217 0.0232147 12.1116 0 12.0005 0C11.8893 0 11.7793 0.0232147 11.6766 0.0683154C11.574 0.113416 11.4807 0.179517 11.4022 0.262836L0.497704 11.8034C0.180021 12.1398 0 12.5969 0 13.0735C0 14.0633 0.759793 14.8679 1.69431 14.8679H2.84327V23.1028C2.84327 23.5991 3.22184 24 3.69042 24H10.3062V17.7194H13.2712V24H20.3106C20.7792 24 21.1577 23.5991 21.1577 23.1028V14.8679H22.3067C22.7567 14.8679 23.1883 14.6801 23.5059 14.3408C24.1651 13.6399 24.1651 12.5043 23.5033 11.8034Z" fill="#F5F5F5"/>
</svg>
