<svg width="24" height="49" viewBox="0 0 24 49" fill="none" xmlns="http://www.w3.org/2000/svg">
<path d="M17.3513 34.1132C15.1538 31.6783 12.1433 27.8539 9.51535 24.6525C8.8945 23.8401 8.46677 23.6039 8.03414 23.6039C7.84319 23.6039 7.60423 23.6514 7.27035 23.7469V29.0487C7.27035 32.202 7.70025 32.489 10.7581 32.7754V34.0177H0.0546875V32.7754C3.25607 32.489 3.54304 32.1066 3.54304 29.0487V6.44805C3.54304 3.29467 3.30408 3.05572 0.38912 2.76875V1.67216C2.6805 1.4332 5.40833 0.620854 7.2698 0V22.5046C8.703 22.2182 9.56118 21.5968 10.2802 20.8324C11.331 19.7811 12.7647 17.918 13.6726 16.6278C14.6278 15.1466 14.4849 14.7641 12.2388 14.5252V13.2807L21.9864 12.8508V14.0451C18.6896 14.6184 17.6863 15.0964 15.8215 16.8645C14.6268 18.0588 13.7669 19.0146 11.7123 21.4037C12.6682 22.8369 17.4953 28.4753 19.1184 30.1474C20.8386 31.9631 22.0808 32.68 23.8965 32.7754V34.0177L17.3513 34.1132Z" fill="#F5F4F5"/>
<path d="M24 37.7039H0V38.9587H24V37.7039Z" fill="#F5F4F5"/>
<path d="M4.37116 44.0179C4.37621 44.2894 4.31656 44.5581 4.19713 44.8019C4.08402 45.0262 3.91884 45.2202 3.71539 45.3676C3.51452 45.5161 3.28848 45.627 3.04816 45.695C2.79738 45.7658 2.53786 45.8009 2.27728 45.7992H1.6417V47.5172C1.63999 47.6015 1.65558 47.6852 1.68752 47.7632C1.70635 47.802 1.73291 47.8365 1.76555 47.8647C1.7982 47.8928 1.83625 47.914 1.87738 47.9269C1.95978 47.954 2.04482 47.9723 2.13107 47.9815C2.24182 47.9964 2.35326 48.0057 2.46495 48.0093V48.293H0.0311846V48.0093C0.0955614 48.0038 0.187762 47.9945 0.308877 47.9815C0.39573 47.9751 0.481284 47.9567 0.563112 47.9269C0.636671 47.8978 0.697947 47.8442 0.736602 47.7752C0.775696 47.6958 0.794443 47.6079 0.791158 47.5194V43.4276C0.792206 43.3421 0.778739 43.2571 0.751332 43.1761C0.734516 43.1359 0.708943 43.1 0.676477 43.0709C0.64401 43.0418 0.605467 43.0204 0.563657 43.0081C0.465513 42.9745 0.364537 42.9498 0.261959 42.9344C0.161575 42.9197 0.075921 42.9099 0.00390625 42.9044V42.6196H2.59316C3.12091 42.6196 3.54918 42.7469 3.87797 43.0015C4.0359 43.1187 4.1632 43.2724 4.24906 43.4493C4.33493 43.6263 4.37681 43.8213 4.37116 44.0179ZM3.15619 44.9852C3.2427 44.8663 3.30396 44.7309 3.33622 44.5875C3.36342 44.4662 3.37804 44.3424 3.37987 44.2181C3.3792 44.062 3.3609 43.9064 3.32531 43.7544C3.2933 43.6057 3.23008 43.4655 3.13982 43.3431C3.04431 43.2158 2.91768 43.1153 2.77211 43.0512C2.59254 42.9765 2.39911 42.941 2.20472 42.947H1.6417V45.4528H2.04923C2.33657 45.4528 2.57043 45.408 2.75083 45.3185C2.91255 45.2444 3.05223 45.1296 3.15619 44.9852Z" fill="#F5F4F5"/>
<path d="M10.8017 46.6023L10.6816 48.2886H6.25V48.0049C6.31438 47.9995 6.40658 47.9902 6.52769 47.9771C6.61438 47.9708 6.69976 47.9524 6.78138 47.9225C6.85519 47.8936 6.9167 47.84 6.95542 47.7709C6.99451 47.6914 7.01326 47.6035 7.00997 47.515V43.4587C7.01154 43.3764 6.99594 43.2946 6.96415 43.2187C6.92581 43.1425 6.86103 43.083 6.78193 43.0512C6.69954 43.0111 6.61325 42.9797 6.52442 42.9573C6.43538 42.9307 6.34406 42.9125 6.25164 42.9028V42.6196H8.64558V42.9033C8.54812 42.909 8.45126 42.9223 8.35588 42.9431C8.26865 42.9592 8.18248 42.9805 8.09783 43.007C8.05699 43.0194 8.0193 43.0404 7.98729 43.0686C7.95529 43.0969 7.92973 43.1317 7.91234 43.1706C7.87849 43.2488 7.86139 43.3332 7.86215 43.4183V47.2264C7.85944 47.3633 7.8682 47.5001 7.88833 47.6356C7.89993 47.7232 7.94321 47.8035 8.01 47.8614C8.09086 47.9166 8.18508 47.949 8.28278 47.9553C8.45207 47.9724 8.6222 47.9799 8.79234 47.9776C8.89054 47.9776 8.99311 47.9749 9.10004 47.9694C9.20169 47.9647 9.30298 47.9539 9.40337 47.9373C9.49116 47.9229 9.57752 47.9008 9.66142 47.8712C9.7274 47.8515 9.78716 47.815 9.83491 47.7654C9.97935 47.5921 10.1072 47.4056 10.2168 47.2084C10.3342 47.0154 10.4351 46.8128 10.5185 46.6028L10.8017 46.6023Z" fill="#F5F4F5"/>
<path d="M17.7028 48.2897H15.3459V48.0061C15.5207 47.998 15.6941 47.9711 15.8631 47.9259C16.0006 47.8858 16.0693 47.8366 16.0693 47.778C16.0688 47.7486 16.0661 47.7192 16.0612 47.6902C16.0567 47.6588 16.0486 47.628 16.0371 47.5985L15.5674 46.3295H13.5772C13.5023 46.5157 13.4415 46.6781 13.395 46.8167C13.3486 46.9553 13.3066 47.0835 13.2689 47.1986C13.2313 47.3137 13.2106 47.4065 13.1969 47.4785C13.1853 47.5364 13.1788 47.5951 13.1773 47.6542C13.1773 47.7633 13.2608 47.8435 13.4288 47.9018C13.612 47.9635 13.8031 47.9985 13.9962 48.0061V48.2897H11.8608V48.0061C11.9484 47.9975 12.0353 47.9821 12.1205 47.9602C12.2108 47.9403 12.2972 47.9058 12.3764 47.8582C12.471 47.7972 12.5547 47.7209 12.6241 47.6323C12.6947 47.5307 12.7524 47.4208 12.7959 47.305C13.0807 46.5936 13.395 45.7945 13.7387 44.9078C14.0824 44.0211 14.3888 43.2311 14.658 42.5378H14.9777L16.8691 47.4305C16.902 47.5206 16.9477 47.6055 17.005 47.6825C17.0656 47.7554 17.137 47.8187 17.2167 47.8702C17.2917 47.9129 17.3726 47.9445 17.4567 47.964C17.5376 47.9864 17.6206 48.0004 17.7044 48.0061L17.7028 48.2897ZM15.4217 45.9722L14.5625 43.7719L13.7163 45.9722H15.4217Z" fill="#F5F4F5"/>
<path d="M23.993 42.9033C23.9184 42.9129 23.8452 42.9312 23.7748 42.9579C23.6999 42.9801 23.6286 43.013 23.5631 43.0555C23.4885 43.0988 23.4177 43.1482 23.3515 43.2034C23.2723 43.289 23.1994 43.3802 23.1332 43.4762C22.9259 43.769 22.7342 44.0661 22.5582 44.3676C22.3822 44.6691 22.1623 45.051 21.8986 45.5133C21.8192 45.6433 21.7536 45.7811 21.7028 45.9247C21.6658 46.0723 21.6496 46.2243 21.6547 46.3764V47.4588C21.6526 47.5457 21.6727 47.6317 21.7131 47.7087C21.7583 47.7855 21.8278 47.8452 21.9106 47.8783C22.0087 47.9112 22.109 47.9373 22.2107 47.9564C22.3248 47.9832 22.4411 48 22.5582 48.0065V48.2902H19.9089V48.0065C19.9835 48.0011 20.0955 47.9911 20.245 47.9765C20.3509 47.9705 20.4555 47.9511 20.5565 47.9187C20.6398 47.8895 20.7098 47.8314 20.754 47.755C20.7927 47.6756 20.8114 47.588 20.8086 47.4997V46.12C20.7966 46.038 20.7704 45.9588 20.7311 45.8859C20.6765 45.773 20.6171 45.647 20.5451 45.5084C20.3854 45.1996 20.2083 44.8654 20.0137 44.5057C19.8191 44.1459 19.65 43.8382 19.5063 43.5826C19.4392 43.4609 19.3608 43.3459 19.2723 43.2388C19.2039 43.1609 19.1253 43.0925 19.0388 43.0354C18.9678 42.9922 18.8902 42.9611 18.8091 42.9431C18.7297 42.9236 18.6489 42.9103 18.5674 42.9033V42.6196H20.987V42.9033C20.7937 42.8999 20.6006 42.9182 20.4114 42.9579C20.2996 42.9895 20.2434 43.0348 20.2434 43.0932C20.2469 43.1221 20.255 43.1503 20.2674 43.1767C20.2837 43.217 20.3061 43.2672 20.3356 43.3283C20.365 43.3894 20.4114 43.4767 20.4589 43.5662C20.5063 43.6557 20.5522 43.7413 20.5947 43.8237C20.7198 44.0608 20.8471 44.2972 20.9766 44.5329C21.1061 44.7686 21.2763 45.0765 21.4873 45.4566C21.9052 44.7826 22.2238 44.2574 22.4431 43.881C22.6624 43.5045 22.7715 43.2789 22.7704 43.2039C22.7719 43.176 22.767 43.1482 22.7559 43.1225C22.7448 43.0968 22.7279 43.0741 22.7066 43.0561C22.6533 43.0146 22.592 42.9847 22.5266 42.9682C22.4443 42.946 22.3601 42.9319 22.275 42.9262C22.1845 42.9197 22.1005 42.9121 22.023 42.9044V42.6196H23.9947L23.993 42.9033Z" fill="#F5F4F5"/>
</svg>
