<svg width="26" height="26" viewBox="0 0 26 26" fill="none" xmlns="http://www.w3.org/2000/svg">
<path d="M25.2701 22.6745L25.2716 22.676C25.3441 22.7486 25.4015 22.8347 25.4407 22.9294L25.4407 22.9295C25.4798 23.0241 25.5 23.1256 25.5 23.2281C25.5 23.3306 25.4798 23.432 25.4407 23.5267L25.4407 23.5267C25.4015 23.6214 25.3441 23.7076 25.2716 23.7801L25.2713 23.7804L23.7809 25.2707L25.2701 22.6745ZM25.2701 22.6745L20.0531 17.4955M25.2701 22.6745L20.0531 17.4955M20.0531 17.4955C21.3307 15.6911 22.0177 13.5367 22.0177 11.2812C22.0177 8.39984 20.8946 5.69598 18.8661 3.65953C16.8367 1.6221 14.1308 0.5 11.2589 0.5C8.38664 0.5 5.68111 1.62571 3.65211 3.65902C1.61928 5.69274 0.5 8.40053 0.5 11.2812C0.5 14.1588 1.62293 16.8698 3.65191 18.9032C5.68123 20.9403 8.38357 22.0624 11.2589 22.0624C13.5111 22.0624 15.6588 21.3731 17.4592 20.0949L22.6761 25.2707C22.6765 25.271 22.6768 25.2714 22.6772 25.2717C22.7494 25.3439 22.8351 25.4012 22.9294 25.4403C23.0242 25.4797 23.1258 25.5 23.2285 25.5C23.3312 25.5 23.4329 25.4797 23.5276 25.4404L23.3359 24.9786L23.5276 25.4403C23.6222 25.4011 23.7081 25.3436 23.7804 25.2712L20.0531 17.4955ZM16.322 16.3561C14.9654 17.7124 13.1706 18.4578 11.2589 18.4578C9.34729 18.4578 7.55257 17.7125 6.19601 16.3564C4.84292 14.9969 4.09891 13.1978 4.09891 11.2812C4.09891 9.36408 4.84325 7.56183 6.19589 6.20612C7.55246 4.8499 9.34723 4.10457 11.2589 4.10457C13.1714 4.10457 14.969 4.84711 16.3212 6.20547C17.6746 7.56505 18.4188 9.36431 18.4188 11.2812C18.4188 13.1982 17.6746 15.0004 16.322 16.3561Z" fill="#F5F5F5" stroke="#F5F5F5"/>
</svg>
