<svg width="24" height="24" viewBox="0 0 24 24" fill="none" xmlns="http://www.w3.org/2000/svg">
<path d="M23.9178 22.0293L18.3942 16.5459C19.7723 14.7604 20.5177 12.5773 20.5177 10.2812C20.5177 7.53268 19.4474 4.95553 17.5119 3.01239C15.5764 1.06924 12.998 0 10.2589 0C7.51975 0 4.94136 1.07267 3.00585 3.01239C1.06692 4.9521 0 7.53268 0 10.2812C0 13.0263 1.07034 15.6103 3.00585 17.55C4.94136 19.4931 7.51633 20.5624 10.2589 20.5624C12.55 20.5624 14.7249 19.8153 16.5065 18.4376L22.0302 23.9176C22.0562 23.9437 22.0871 23.9645 22.1212 23.9786C22.1552 23.9927 22.1917 24 22.2285 24C22.2654 24 22.3018 23.9927 22.3359 23.9786C22.3699 23.9645 22.4008 23.9437 22.4269 23.9176L23.9178 22.4269C23.9439 22.4008 23.9645 22.3698 23.9786 22.3357C23.9927 22.3016 24 22.265 24 22.2281C24 22.1912 23.9927 22.1546 23.9786 22.1205C23.9645 22.0864 23.9439 22.0554 23.9178 22.0293ZM15.6756 15.7097C14.2256 17.1593 12.3038 17.9578 10.2589 17.9578C8.21393 17.9578 6.29211 17.1593 4.84219 15.7097C3.39569 14.2566 2.59891 12.3306 2.59891 10.2812C2.59891 8.2318 3.39569 6.30237 4.84219 4.85272C6.29211 3.40307 8.21393 2.60457 10.2589 2.60457C12.3038 2.60457 14.2291 3.39965 15.6756 4.85272C17.1221 6.30579 17.9188 8.2318 17.9188 10.2812C17.9188 12.3306 17.1221 14.26 15.6756 15.7097Z" fill="#ACACAC"/>
</svg>
