<svg width="34" height="34" viewBox="0 0 34 34" fill="none" xmlns="http://www.w3.org/2000/svg">
<path d="M21.5801 7.77467C20.3858 7.72083 20.026 7.7095 17 7.7095C13.974 7.7095 13.6156 7.72083 12.4213 7.77467C9.34717 7.91492 7.91492 9.37125 7.77608 12.4199C7.72083 13.6156 7.70808 13.974 7.70808 17C7.70808 20.026 7.72083 20.3844 7.77467 21.5801C7.91492 24.6231 9.3415 26.0851 12.4199 26.2253C13.6142 26.2792 13.974 26.2919 17 26.2919C20.0274 26.2919 20.3858 26.2806 21.5801 26.2267C24.6542 26.0865 26.0851 24.6273 26.2253 21.5815C26.2792 20.3858 26.2905 20.0274 26.2905 17.0014C26.2905 13.9754 26.2792 13.617 26.2253 12.4227C26.0851 9.37267 24.6514 7.91492 21.5801 7.77467ZM17 22.8197C13.7856 22.8197 11.1803 20.2144 11.1803 17C11.1803 13.7856 13.787 11.1803 17 11.1803C20.213 11.1803 22.8197 13.7856 22.8197 17C22.8197 20.2144 20.2144 22.8197 17 22.8197ZM23.0506 12.3108C22.2997 12.3108 21.6906 11.7017 21.6906 10.9508C21.6906 10.2 22.2997 9.59083 23.0506 9.59083C23.8014 9.59083 24.4106 10.2 24.4106 10.9508C24.4106 11.7017 23.8014 12.3108 23.0506 12.3108ZM20.7782 17C20.7782 19.0868 19.0868 20.7782 17 20.7782C14.9132 20.7782 13.2218 19.0868 13.2218 17C13.2218 14.9132 14.9132 13.2218 17 13.2218C19.0868 13.2218 20.7782 14.9132 20.7782 17ZM26.9167 0H7.08333C3.17192 0 0 3.17192 0 7.08333V26.9167C0 30.8281 3.17192 34 7.08333 34H26.9167C30.8295 34 34 30.8281 34 26.9167V7.08333C34 3.17192 30.8295 0 26.9167 0V0ZM28.2653 21.6722C28.0783 25.7932 25.7847 28.0769 21.6736 28.2653C20.4637 28.3206 20.0784 28.3333 17 28.3333C13.9216 28.3333 13.5377 28.3206 12.3278 28.2653C8.20817 28.0769 5.9245 25.789 5.73467 21.6722C5.67942 20.4638 5.66667 20.0784 5.66667 17C5.66667 13.923 5.67942 13.5362 5.73467 12.3278C5.9245 8.20817 8.211 5.92308 12.3278 5.73608C13.5377 5.67942 13.9216 5.66667 17 5.66667C20.0784 5.66667 20.4637 5.67942 21.6736 5.73467C25.7932 5.92308 28.0812 8.21525 28.2653 12.3264C28.3206 13.5363 28.3333 13.923 28.3333 17C28.3333 20.0784 28.3206 20.4638 28.2653 21.6722Z" fill="#F5F5F5"/>
</svg>
