<svg width="34" height="34" viewBox="0 0 34 34" fill="none" xmlns="http://www.w3.org/2000/svg">
<path d="M26.9167 0H7.08333C3.17192 0 0 3.17192 0 7.08333V26.9167C0 30.8281 3.17192 34 7.08333 34H26.9167C30.8295 34 34 30.8281 34 26.9167V7.08333C34 3.17192 30.8295 0 26.9167 0ZM22.6667 9.91667H19.941C19.0697 9.91667 18.4167 10.2737 18.4167 11.1761V12.75H22.6667L22.3295 17H18.4167V28.3333H14.1667V17H11.3333V12.75H14.1667V10.0258C14.1667 7.16125 15.674 5.66667 19.0697 5.66667H22.6667V9.91667Z" fill="#F5F5F5"/>
</svg>
