<svg width="34" height="34" viewBox="0 0 34 34" fill="none" xmlns="http://www.w3.org/2000/svg">
<path d="M26.9167 0H7.08333C3.17192 0 0 3.17192 0 7.08333V26.9167C0 30.8281 3.17192 34 7.08333 34H26.9167C30.8295 34 34 30.8281 34 26.9167V7.08333C34 3.17192 30.8295 0 26.9167 0ZM11.3333 26.9167H7.08333V11.3333H11.3333V26.9167ZM9.20833 9.537C7.83983 9.537 6.72917 8.41783 6.72917 7.038C6.72917 5.65817 7.83983 4.539 9.20833 4.539C10.5768 4.539 11.6875 5.65817 11.6875 7.038C11.6875 8.41783 10.5782 9.537 9.20833 9.537ZM28.3333 26.9167H24.0833V18.9777C24.0833 14.2063 18.4167 14.5676 18.4167 18.9777V26.9167H14.1667V11.3333H18.4167V13.8337C20.3943 10.1702 28.3333 9.89967 28.3333 17.3414V26.9167Z" fill="#F5F5F5"/>
</svg>
