<svg width="34" height="34" viewBox="0 0 34 34" fill="none" xmlns="http://www.w3.org/2000/svg">
<path d="M26.9167 0H7.08333C3.17192 0 0 3.17192 0 7.08333V26.9167C0 30.8281 3.17192 34 7.08333 34H26.9167C30.8295 34 34 30.8281 34 26.9167V7.08333C34 3.17192 30.8295 0 26.9167 0ZM26.7197 13.0858C27.0158 19.6265 22.1383 26.9195 13.5022 26.9195C10.8757 26.9195 8.432 26.1502 6.37358 24.8299C8.84142 25.1203 11.3036 24.4361 13.2586 22.9047C11.2228 22.8664 9.50583 21.522 8.91508 19.6747C9.64467 19.8135 10.3615 19.7724 11.0146 19.5953C8.77767 19.1462 7.23492 17.1317 7.2845 14.977C7.91067 15.3255 8.62892 15.5352 9.38967 15.5592C7.31992 14.1752 6.73342 11.441 7.95033 9.35C10.2439 12.1635 13.6708 14.0151 17.5355 14.2092C16.8569 11.3007 19.0655 8.5 22.0674 8.5C23.4033 8.5 24.6132 9.06383 25.4603 9.96908C26.52 9.76083 27.5159 9.37408 28.4155 8.84142C28.067 9.928 27.3303 10.8389 26.3712 11.4141C27.3119 11.3007 28.2087 11.0514 29.0417 10.6817C28.4197 11.611 27.6307 12.4298 26.7197 13.0858Z" fill="#F5F5F5"/>
</svg>
